<svg xmlns="http://www.w3.org/2000/svg" width="512" height="512" viewBox="0 0 512 512">
  <rect width="512" height="512" rx="110" fill="#0f172a"/>
  <g fill="#ffffff">
    <path d="M144 168c0-11.046 8.954-20 20-20h54c11.046 0 20 8.954 20 20s-8.954 20-20 20h-34v30c0 11.046-8.954 20-20 20s-20-8.954-20-20v-50zm164 0c0-11.046 8.954-20 20-20h54c11.046 0 20 8.954 20 20v54c0 11.046-8.954 20-20 20s-20-8.954-20-20v-34h-30c-11.046 0-20-8.954-20-20zM144 344c0-11.046 8.954-20 20-20s20 8.954 20 20v30h30c11.046 0 20 8.954 20 20s-8.954 20-20 20h-70c-11.046 0-20-8.954-20-20v-50zm206-20c11.046 0 20 8.954 20 20v30c0 11.046-8.954 20-20 20h-30c-11.046 0-20 8.954-20 20s8.954 20 20 20h54c11.046 0 20-8.954 20-20v-80c0-11.046-8.954-20-20-20h-24z"/>
    <path d="M206 256c0-11.046 8.954-20 20-20h60c11.046 0 20 8.954 20 20s-8.954 20-20 20h-60c-11.046 0-20-8.954-20-20z"/>
  </g>
  <text x="256" y="312" font-family="system-ui, -apple-system, Segoe UI, Roboto, Arial, sans-serif" font-size="72" text-anchor="middle" fill="#ffffff" font-weight="700">BREB</text>
</svg>
